<svg height="16" viewBox="0 0 16 16.000001" width="16" xmlns="http://www.w3.org/2000/svg"><path d="m8 0a8 8 0 0 0 -8 8 8 8 0 0 0 8 8 8 8 0 0 0 8-8 8 8 0 0 0 -8-8zm.08824 1.970588a6.1176471 6.1176471 0 0 1 6.117647 6.117647 6.1176471 6.1176471 0 0 1 -6.117647 6.117647 6.1176471 6.1176471 0 0 1 -6.117647-6.117647 6.1176471 6.1176471 0 0 1 6.117647-6.117647zm-.02169 1.882353c-2.363691 0-3.792647 1.604214-3.792647 3.934927 0 .109942.04308.194978.120956.242647v.291176l-.06654.004c-.163018.06787-.279402.226757-.31728.443015-.04461.45509.06137 1.236444.25478 1.904779.290504 1.105193.529878 1.523848.890441 1.622427.456001.124674.78353-.241961.661397-.754044l-.717657-2.793706c-.055146-.209016-.18517-.345832-.363971-.413971v-.302941c.07688-.04735.120589-.132088.120589-.243382.0051-.884472.233515-1.627835.65-2.188603.613553-.351412 1.307081-.549467 2.110294-.602206v.0059c.160104-.01156.324527-.01765.493014-.01765.152013 0 .300132.0049.444853.01434.0015.000109.0033.000282.0048.000376.803214.05274 1.49674.250795 2.110294.602206.416485.560768.644882 1.304132.65 2.188603 0 .111295.0437.196033.120588.243383v.302941c-.178801.06814-.308825.204955-.36397.41397l-.717647 2.79375c-.122134.512084.205395.87872.661397.754045.360563-.09858.599937-.517234.890441-1.622427.193406-.668335.299393-1.44969.254779-1.904779-.03788-.216258-.154262-.375143-.317279-.443015l-.06654-.004v-.291544c.07788-.04767.120956-.132338.120956-.24228 0-2.178227-1.250267-3.718351-3.343015-3.911029v-.0026c-.04009-.004-.08061-.0076-.121324-.01066-.121152-.009-.245107-.01361-.371691-.01361zm-2.018015 4.236765c-.05456.0016-.111072.01009-.167279.02684-.03021.0079-.05701.0192-.08235.03125-.04527.01466-.08121.04123-.105882.0761-.05602.06168-.07722.13958-.05331.222427l.42647 1.540441.400736 1.541544c.04659.161218.14904.231525.281617.201838.02604-.0072.05103-.01668.0739-.02904.01448-.0026.02868-.0053.04375-.0092.319716-.0953.497104-.389653.416177-.694117l-.6875-2.512868c-.04871-.183152-.180999-.314178-.348529-.368382-.02392-.0077-.04869-.01309-.0739-.01765-.02297-.0041-.04608-.0067-.06985-.0081-.01785-.001-.03583-.0016-.05405-.0011zm4.079412.0029c-.01821-.00049-.0362.000079-.05404.0011-.02377.0014-.04689.004-.06985.0081-.02521.0046-.04998.0099-.0739.01765-.167529.0542-.29982.18523-.348529.368382l-.6875 2.512859c-.08093.304465.09646.598815.416176.694118.01507.0039.02927.0066.04375.0092.02287.01237.04786.02188.0739.02904.132578.02969.235029-.04062.281618-.201839l.400735-1.541544.426471-1.540441c.02391-.08285.0027-.16075-.05331-.222426-.02467-.03488-.06061-.06144-.105883-.0761-.02534-.01205-.05215-.02334-.08235-.03125-.05621-.01675-.112718-.02522-.16728-.02684z" stroke-width=".188235"/></svg>