<svg height="16" width="16" xmlns="http://www.w3.org/2000/svg"><path d="m8.0000003.093c-4.3612233 0-7.89703525 3.5402728-7.89703525 7.9069995 0 4.3674155 3.53581195 7.9070005 7.89703525 7.9070005 4.3619087 0 7.8970347-3.539585 7.8970347-7.9070005 0-4.3667267-3.535126-7.9069995-7.8970347-7.9069995zm0 1.3482723c3.6182147 0 6.5504597 2.9359461 6.5504597 6.5587272 0 .5571999-.07592 1.0948918-.206546 1.6114812l-3.115627-3.4673703-3.9833873 4.5376606 1.9219521-3.8500953-.9603057-1.7189131-5.6625819 6.5157554c-.6908108-1.03938-1.0944265-2.2866165-1.0944265-3.6285185 0-3.6227811 2.9322464-6.5587272 6.5504626-6.5587272z" fill="#2e3436" stroke-width=".687132"/></svg>
