<svg height="16" viewBox="0 0 16 16" width="16" xmlns="http://www.w3.org/2000/svg"><path d="M 12.814453,0.5 C 9.6939559,0.5 9.1097803,4.9453125 10.865234,4.9453125 12.620435,4.9453125 15.935077,0.5 12.814453,0.5 Z M 7.9941406,1.0449219 c -0.049551,-1.707e-4 -0.1013524,0.00264 -0.15625,0.00977 C 6.0818023,1.2826175 6.6977541,4.3374536 7.6328125,4.3945313 8.5382817,4.4498252 9.530229,1.0502133 7.9941406,1.0449219 Z M 4.9511719,2.2519531 C 4.8583402,2.2540099 4.7567353,2.276772 4.6464843,2.3222656 3.235018,2.9047111 4.4319408,5.3100307 5.2226562,5.1484376 5.9521816,4.9997028 6.0465857,2.2276824 4.9511719,2.2519531 Z m -2.25,1.8847656 C 2.5784523,4.1325889 2.4459863,4.1739133 2.3046875,4.2714843 1.1748042,5.0521794 2.6848453,6.9389755 3.3496094,6.6464844 3.9312779,6.3904437 3.5602092,4.1656284 2.7011719,4.1367187 Z m 6.453125,1.4433594 C 6.7319771,5.5390981 3.5371203,6.7549269 2.9921875,9.1953126 2.4020048,11.836231 5.4215806,15.5 8.5722656,15.5 c 1.5499744,0 3.3374004,-1.398917 3.6718754,-3.171875 0.255454,-1.351979 -3.0058716,-0.810612 -2.8886722,0.08398 0.140411,1.072299 -0.7873978,1.60143 -1.6953126,0.910156 C 4.7698721,11.121733 12.445415,10.02392 11.939453,7.0175781 11.781966,6.0817904 10.607689,5.6046661 9.1542969,5.5800781 Z" fill="#2e3436" stroke-width=".945946"/></svg>
