<svg height="16" viewBox="0 0 16 16" width="16" xmlns="http://www.w3.org/2000/svg"><path d="m 4.7532243,1.5064487 c -0.4870163,0 -0.8116939,0.3246776 -0.8116939,0.8116939 0,0.4058469 0.3246776,0.8116939 0.8116939,0.8116939 0.4058469,0 0.8116939,-0.405847 0.8116939,-0.8116939 0,-0.4870163 -0.1623388,-0.8116939 -0.8116939,-0.8116939 z m 5.6818577,0 L 8.8116938,3.1298365 11.246776,5.5649182 8.8116938,7.9999999 10.435082,9.6233877 12.870163,7.188306 14.493551,5.5649182 Z M 2.7239895,6.3766121 c -0.6493551,0 -1.2175408,0.5681857 -1.2175408,1.2175408 0,0.6493552 0.5681857,1.2175409 1.2175408,1.2175409 0.6493552,0 1.2175409,-0.5681857 1.2175409,-1.2175409 0,-0.6493551 -0.5681857,-1.2175408 -1.2175409,-1.2175408 z m 3.6526226,4.8701639 c -0.8928633,0 -1.6233878,0.730524 -1.6233878,1.623387 0,0.892864 0.7305245,1.623388 1.6233878,1.623388 0.8928633,0 1.6233878,-0.730524 1.6233878,-1.623388 0,-0.892863 -0.7305245,-1.623387 -1.6233878,-1.623387 z" fill="#2e3436" stroke-width=".945946"/></svg>
